<?xml version="1.0" encoding="UTF-8"?>
<svg xmlns="http://www.w3.org/2000/svg" xmlns:xlink="http://www.w3.org/1999/xlink" width="80px" height="40px" viewBox="0 0 80 40" version="1.1">
<defs>
<clipPath id="clip1">
  <path d="M 31 14 L 77 14 L 77 26 L 31 26 Z M 31 14 "/>
</clipPath>
<clipPath id="clip2">
  <path d="M 48.695312 17.898438 C 49.878906 19.089844 49.875 21.011719 48.6875 22.195312 C 47.5 23.382812 45.578125 23.382812 44.394531 22.195312 C 43.207031 21.011719 43.203125 19.089844 44.386719 17.898438 C 44.957031 17.328125 45.734375 17.007812 46.539062 17.007812 C 47.347656 17.007812 48.125 17.328125 48.695312 17.898438 Z M 46.539062 14.988281 C 49.335938 14.988281 51.605469 17.257812 51.601562 20.054688 C 51.601562 22.851562 49.335938 25.117188 46.539062 25.117188 C 43.742188 25.117188 41.472656 22.851562 41.472656 20.054688 C 41.472656 17.257812 43.738281 14.988281 46.535156 14.988281 Z M 59.332031 17.898438 C 60.515625 19.089844 60.511719 21.011719 59.324219 22.195312 C 58.140625 23.382812 56.21875 23.382812 55.03125 22.195312 C 53.84375 21.011719 53.839844 19.089844 55.023438 17.898438 C 55.59375 17.328125 56.371094 17.007812 57.179688 17.007812 C 57.984375 17.007812 58.761719 17.328125 59.332031 17.898438 Z M 60.761719 16.46875 C 62.472656 18.175781 62.738281 20.855469 61.394531 22.863281 C 60.054688 24.875 57.480469 25.65625 55.246094 24.734375 C 53.011719 23.8125 51.742188 21.4375 52.214844 19.066406 C 52.683594 16.699219 54.761719 14.988281 57.179688 14.988281 C 58.523438 14.988281 59.808594 15.523438 60.757812 16.472656 Z M 33.875 25.09375 L 34.382812 25.117188 L 41.980469 25.117188 L 41.957031 24.613281 C 41.886719 23.777344 41.296875 23.167969 40.460938 23.117188 L 39.957031 23.09375 L 35.394531 23.09375 L 41.476562 17.011719 L 41.449219 16.507812 C 41.429688 15.691406 40.773438 15.03125 39.957031 15.011719 L 39.449219 14.988281 L 31.851562 14.988281 L 31.875 15.492188 C 31.914062 16.300781 32.5625 16.949219 33.371094 16.988281 L 33.875 17.011719 L 38.4375 17.011719 L 32.355469 23.09375 L 32.382812 23.597656 C 32.410156 24.414062 33.0625 25.066406 33.875 25.09375 Z M 68.554688 18.027344 C 68.71875 18.339844 68.808594 18.6875 68.808594 19.039062 L 68.835938 19.546875 L 68.835938 23.09375 L 68.859375 23.597656 C 68.890625 24.410156 69.539062 25.058594 70.347656 25.09375 L 70.855469 25.117188 L 70.855469 19.546875 L 70.878906 19.039062 C 70.882812 18.683594 70.96875 18.335938 71.132812 18.019531 C 71.496094 17.394531 72.167969 17.011719 72.890625 17.011719 C 73.613281 17.015625 74.28125 17.402344 74.640625 18.027344 C 74.800781 18.339844 74.886719 18.6875 74.886719 19.039062 L 74.910156 19.546875 L 74.910156 23.09375 L 74.9375 23.597656 C 74.964844 24.410156 75.617188 25.0625 76.425781 25.09375 L 76.933594 25.117188 L 76.933594 19.039062 C 76.933594 17.355469 75.890625 15.84375 74.316406 15.25 C 72.738281 14.652344 70.957031 15.09375 69.84375 16.359375 C 68.496094 14.832031 66.222656 14.539062 64.535156 15.679688 C 64.144531 15.242188 63.257812 14.988281 62.75 14.988281 L 62.75 25.117188 L 63.257812 25.09375 C 64.101562 25.039062 64.71875 24.441406 64.75 23.597656 L 64.777344 23.09375 L 64.777344 19.546875 L 64.800781 19.039062 C 64.804688 18.6875 64.890625 18.339844 65.054688 18.027344 C 65.417969 17.402344 66.085938 17.015625 66.808594 17.015625 C 67.53125 17.015625 68.199219 17.402344 68.5625 18.027344 Z M 68.554688 18.027344 "/>
</clipPath>
<clipPath id="clip3">
  <path d="M 2 7 L 29 7 L 29 33 L 2 33 Z M 2 7 "/>
</clipPath>
<clipPath id="clip4">
  <path d="M 28.304688 20.054688 C 28.304688 27.1875 22.519531 32.96875 15.386719 32.96875 C 8.253906 32.96875 2.46875 27.1875 2.46875 20.054688 C 2.46875 12.917969 8.253906 7.136719 15.386719 7.136719 C 22.519531 7.136719 28.304688 12.917969 28.304688 20.054688 Z M 28.304688 20.054688 "/>
</clipPath>
<clipPath id="clip5">
  <path d="M 2 7 L 29 7 L 29 33 L 2 33 Z M 2 7 "/>
</clipPath>
<clipPath id="clip6">
  <path d="M 28.050781 20.054688 C 28.050781 27.046875 22.382812 32.71875 15.386719 32.71875 C 8.394531 32.71875 2.722656 27.046875 2.722656 20.054688 C 2.722656 13.058594 8.394531 7.390625 15.386719 7.390625 C 22.382812 7.390625 28.050781 13.058594 28.050781 20.054688 Z M 28.050781 20.054688 "/>
</clipPath>
<clipPath id="clip7">
  <path d="M 3 8 L 28 8 L 28 32 L 3 32 Z M 3 8 "/>
</clipPath>
<clipPath id="clip8">
  <path d="M 27.039062 20.054688 C 27.039062 26.488281 21.820312 31.703125 15.386719 31.703125 C 8.953125 31.703125 3.738281 26.488281 3.738281 20.054688 C 3.738281 13.617188 8.953125 8.402344 15.386719 8.402344 C 21.820312 8.402344 27.039062 13.617188 27.039062 20.054688 Z M 27.039062 20.054688 "/>
</clipPath>
<clipPath id="clip9">
  <path d="M 7 15 L 23 15 L 23 25 L 7 25 Z M 7 15 "/>
</clipPath>
<clipPath id="clip10">
  <path d="M 18.933594 18.539062 L 22.226562 16.132812 C 22.511719 15.902344 22.730469 15.953125 22.730469 16.386719 L 22.730469 23.726562 C 22.730469 24.210938 22.457031 24.15625 22.226562 23.980469 L 18.933594 21.574219 Z M 7.789062 16.40625 L 7.789062 21.875 C 7.796875 23.113281 8.800781 24.109375 10.039062 24.105469 L 18.015625 24.105469 C 18.242188 24.105469 18.425781 23.925781 18.425781 23.699219 L 18.425781 18.230469 C 18.421875 16.992188 17.414062 15.996094 16.175781 16 L 8.199219 16 C 7.972656 16 7.789062 16.179688 7.789062 16.40625 Z M 7.789062 16.40625 "/>
</clipPath>
</defs>
<g id="surface1">
<g clip-path="url(#clip1)" clip-rule="nonzero">
<g clip-path="url(#clip2)" clip-rule="evenodd">
<path style=" stroke:none;fill-rule:nonzero;fill:rgb(29.019608%,54.901961%,100%);fill-opacity:1;" d="M 31.21875 14.355469 L 77.566406 14.355469 L 77.566406 25.75 L 31.21875 25.75 Z M 31.21875 14.355469 "/>
</g>
</g>
<g clip-path="url(#clip3)" clip-rule="nonzero">
<g clip-path="url(#clip4)" clip-rule="nonzero">
<path style=" stroke:none;fill-rule:nonzero;fill:rgb(89.803922%,89.803922%,89.411765%);fill-opacity:1;" d="M 1.835938 6.503906 L 28.9375 6.503906 L 28.9375 33.601562 L 1.835938 33.601562 Z M 1.835938 6.503906 "/>
</g>
</g>
<g clip-path="url(#clip5)" clip-rule="nonzero">
<g clip-path="url(#clip6)" clip-rule="nonzero">
<path style=" stroke:none;fill-rule:nonzero;fill:rgb(100%,100%,100%);fill-opacity:1;" d="M 2.089844 6.753906 L 28.683594 6.753906 L 28.683594 33.351562 L 2.089844 33.351562 Z M 2.089844 6.753906 "/>
</g>
</g>
<g clip-path="url(#clip7)" clip-rule="nonzero">
<g clip-path="url(#clip8)" clip-rule="nonzero">
<path style=" stroke:none;fill-rule:nonzero;fill:rgb(29.019608%,54.901961%,100%);fill-opacity:1;" d="M 3.101562 7.769531 L 27.671875 7.769531 L 27.671875 32.335938 L 3.101562 32.335938 Z M 3.101562 7.769531 "/>
</g>
</g>
<g clip-path="url(#clip9)" clip-rule="nonzero">
<g clip-path="url(#clip10)" clip-rule="evenodd">
<path style=" stroke:none;fill-rule:nonzero;fill:rgb(100%,100%,100%);fill-opacity:1;" d="M 7.15625 15.367188 L 23.367188 15.367188 L 23.367188 24.738281 L 7.15625 24.738281 Z M 7.15625 15.367188 "/>
</g>
</g>
</g>
</svg>
