<?xml version="1.0" encoding="UTF-8"?>
<svg xmlns="http://www.w3.org/2000/svg" xmlns:xlink="http://www.w3.org/1999/xlink" width="56px" height="20px" viewBox="0 0 56 20" version="1.1">
<g id="surface1">
<path style=" stroke:none;fill-rule:nonzero;fill:rgb(96.470588%,55.294118%,6.666667%);fill-opacity:1;" d="M 3.695312 0.0703125 C 1.855469 0.078125 0.367188 1.574219 0.359375 3.425781 L 0.359375 14.574219 C 0.367188 16.421875 1.855469 17.921875 3.695312 17.929688 L 9.695312 17.929688 C 9.695312 17.929688 12.070312 17.929688 14.316406 17.929688 C 14.351562 17.9375 14.390625 17.9375 14.425781 17.929688 L 19.425781 19.9375 L 17.585938 16.113281 L 4.367188 16.113281 C 2.929688 16.113281 2.265625 15.3125 2.265625 14.0625 C 2.261719 13.542969 2.464844 13.046875 2.832031 12.679688 L 11.453125 4.9375 L 5.40625 4.9375 C 3.890625 4.9375 3.320312 4.601562 3.320312 3.160156 L 3.320312 2.042969 L 13.746094 2.042969 C 14.351562 2.019531 14.945312 2.21875 15.410156 2.609375 C 15.832031 2.992188 16.0625 3.539062 16.042969 4.109375 C 16.066406 4.5625 15.910156 5.003906 15.609375 5.34375 L 6.835938 13.21875 L 17.636719 13.21875 L 17.636719 3.425781 C 17.632812 1.578125 16.148438 0.078125 14.316406 0.0703125 Z M 3.695312 0.0703125 "/>
<path style=" stroke:none;fill-rule:nonzero;fill:rgb(33.72549%,33.72549%,33.72549%);fill-opacity:1;" d="M 37.308594 2.125 C 35.6875 2.125 35.257812 2.523438 35.261719 4.148438 L 35.261719 16.1875 L 38.230469 16.1875 L 38.230469 2.125 Z M 33.324219 2.125 C 31.703125 2.125 31.277344 2.523438 31.277344 4.148438 L 31.277344 16.1875 L 34.242188 16.1875 L 34.242188 2.125 Z M 22.460938 5.605469 C 21.238281 5.605469 20.359375 5.839844 19.816406 6.296875 C 19.277344 6.761719 19.011719 7.527344 19.015625 8.601562 L 19.015625 13.171875 C 19.011719 13.625 19.050781 14.078125 19.132812 14.515625 C 19.210938 15.105469 19.582031 15.609375 20.117188 15.859375 C 20.886719 16.105469 21.695312 16.207031 22.5 16.160156 L 29.757812 16.160156 L 29.757812 15.3125 C 29.757812 13.894531 29.417969 13.632812 27.449219 13.632812 L 23.613281 13.632812 C 22.511719 13.632812 22.023438 13.46875 22.011719 12.160156 L 21.988281 9.632812 C 21.988281 8.375 22.421875 8.15625 23.601562 8.15625 L 25.984375 8.15625 C 26.757812 8.15625 27.28125 8.296875 27.28125 8.886719 L 27.28125 9.808594 L 25.121094 9.808594 C 23.683594 9.804688 23.25 10.296875 23.25 11.296875 L 23.25 12.164062 L 30.207031 12.164062 L 30.207031 8.601562 C 30.214844 8.164062 30.179688 7.726562 30.105469 7.296875 C 30.023438 6.71875 29.664062 6.21875 29.148438 5.960938 C 28.371094 5.6875 27.546875 5.574219 26.730469 5.621094 Z M 42.597656 5.625 C 40.242188 5.625 39.140625 6.09375 39.140625 8.617188 L 39.140625 13.1875 C 39.140625 15.539062 40.265625 16.1875 42.597656 16.1875 L 47.214844 16.1875 C 49.566406 16.1875 50.710938 15.726562 50.710938 13.1875 L 50.710938 8.617188 C 50.710938 6.257812 49.597656 5.625 47.257812 5.625 Z M 42.105469 12.179688 L 42.105469 9.628906 C 42.105469 8.328125 42.488281 8.152344 43.703125 8.152344 L 46.089844 8.152344 C 47.28125 8.152344 47.710938 8.375 47.710938 9.628906 L 47.710938 12.1875 C 47.710938 13.492188 47.3125 13.65625 46.089844 13.65625 L 43.703125 13.65625 C 42.515625 13.65625 42.105469 13.421875 42.105469 12.179688 Z M 42.105469 12.179688 "/>
<path style=" stroke:none;fill-rule:nonzero;fill:rgb(96.470588%,56.470588%,6.27451%);fill-opacity:1;" d="M 47.371094 3.21875 L 47.371094 4.804688 C 50.792969 4.828125 51.6875 5.761719 51.542969 9.035156 L 53.214844 9.035156 C 53.382812 4.570312 52.015625 3.21875 47.460938 3.21875 Z M 47.371094 3.21875 "/>
<path style=" stroke:none;fill-rule:nonzero;fill:rgb(96.470588%,56.470588%,6.27451%);fill-opacity:1;" d="M 48.878906 0.972656 L 48.878906 2.617188 C 52.292969 2.671875 53.976562 3.921875 53.917969 7.585938 L 55.644531 7.585938 C 55.6875 2.679688 53.714844 0.972656 48.949219 0.972656 Z M 48.878906 0.972656 "/>
</g>
</svg>
