<?xml version="1.0" encoding="UTF-8"?>
<svg xmlns="http://www.w3.org/2000/svg" xmlns:xlink="http://www.w3.org/1999/xlink" width="60px" height="30px" viewBox="0 0 60 30" version="1.1">
<defs>
<clipPath id="clip1">
  <path d="M 23 11 L 58 11 L 58 19 L 23 19 Z M 23 11 "/>
</clipPath>
<clipPath id="clip2">
  <path d="M 36.519531 13.425781 C 37.40625 14.316406 37.40625 15.757812 36.515625 16.648438 C 35.625 17.535156 34.183594 17.535156 33.292969 16.648438 C 32.40625 15.757812 32.402344 14.316406 33.289062 13.425781 C 33.71875 12.996094 34.300781 12.753906 34.90625 12.753906 C 35.511719 12.753906 36.09375 12.996094 36.519531 13.425781 Z M 34.90625 11.242188 C 37.003906 11.242188 38.703125 12.941406 38.703125 15.039062 C 38.703125 17.136719 37 18.839844 34.902344 18.839844 C 32.804688 18.839844 31.105469 17.136719 31.105469 15.039062 C 31.101562 12.941406 32.804688 11.242188 34.902344 11.242188 Z M 44.5 13.425781 C 45.386719 14.316406 45.382812 15.757812 44.496094 16.648438 C 43.605469 17.535156 42.164062 17.535156 41.273438 16.648438 C 40.382812 15.757812 40.382812 14.316406 41.269531 13.425781 C 41.695312 12.996094 42.277344 12.753906 42.882812 12.753906 C 43.488281 12.753906 44.070312 12.996094 44.5 13.425781 Z M 45.570312 12.351562 C 46.855469 13.632812 47.054688 15.640625 46.046875 17.148438 C 45.039062 18.65625 43.109375 19.242188 41.433594 18.550781 C 39.761719 17.859375 38.808594 16.078125 39.160156 14.300781 C 39.511719 12.523438 41.070312 11.242188 42.882812 11.242188 C 43.890625 11.242188 44.855469 11.640625 45.570312 12.355469 Z M 25.40625 18.820312 L 25.789062 18.839844 L 31.484375 18.839844 L 31.46875 18.457031 C 31.414062 17.832031 30.972656 17.375 30.347656 17.339844 L 29.964844 17.320312 L 26.546875 17.320312 L 31.105469 12.761719 L 31.085938 12.378906 C 31.070312 11.769531 30.578125 11.273438 29.964844 11.257812 L 29.585938 11.242188 L 23.886719 11.242188 L 23.90625 11.621094 C 23.9375 12.226562 24.421875 12.710938 25.027344 12.742188 L 25.40625 12.761719 L 28.828125 12.761719 L 24.269531 17.320312 L 24.285156 17.699219 C 24.308594 18.308594 24.796875 18.796875 25.40625 18.820312 Z M 51.417969 13.519531 C 51.539062 13.753906 51.605469 14.015625 51.605469 14.28125 L 51.625 14.660156 L 51.625 17.320312 L 51.644531 17.699219 C 51.667969 18.304688 52.152344 18.792969 52.761719 18.820312 L 53.140625 18.839844 L 53.140625 14.660156 L 53.160156 14.28125 C 53.160156 14.011719 53.226562 13.75 53.351562 13.515625 C 53.621094 13.046875 54.125 12.757812 54.667969 12.757812 C 55.207031 12.761719 55.710938 13.050781 55.980469 13.519531 C 56.101562 13.753906 56.164062 14.015625 56.164062 14.28125 L 56.183594 14.660156 L 56.183594 17.320312 L 56.203125 17.699219 C 56.222656 18.308594 56.710938 18.796875 57.320312 18.820312 L 57.699219 18.839844 L 57.699219 14.28125 C 57.699219 13.015625 56.917969 11.882812 55.734375 11.4375 C 54.554688 10.988281 53.21875 11.320312 52.382812 12.269531 C 51.371094 11.121094 49.667969 10.90625 48.398438 11.761719 C 48.109375 11.429688 47.441406 11.242188 47.0625 11.242188 L 47.0625 18.839844 L 47.441406 18.820312 C 48.078125 18.777344 48.539062 18.328125 48.5625 17.699219 L 48.582031 17.320312 L 48.582031 14.660156 L 48.601562 14.28125 C 48.601562 14.015625 48.667969 13.753906 48.792969 13.519531 C 49.0625 13.050781 49.5625 12.761719 50.105469 12.761719 C 50.648438 12.761719 51.148438 13.050781 51.421875 13.519531 Z M 51.417969 13.519531 "/>
</clipPath>
<clipPath id="clip3">
  <path d="M 1 5 L 22 5 L 22 25 L 1 25 Z M 1 5 "/>
</clipPath>
<clipPath id="clip4">
  <path d="M 21.226562 15.039062 C 21.226562 20.390625 16.890625 24.726562 11.539062 24.726562 C 6.191406 24.726562 1.851562 20.390625 1.851562 15.039062 C 1.851562 9.6875 6.191406 5.351562 11.539062 5.351562 C 16.890625 5.351562 21.226562 9.6875 21.226562 15.039062 Z M 21.226562 15.039062 "/>
</clipPath>
<clipPath id="clip5">
  <path d="M 2 5 L 22 5 L 22 25 L 2 25 Z M 2 5 "/>
</clipPath>
<clipPath id="clip6">
  <path d="M 21.039062 15.039062 C 21.039062 20.285156 16.785156 24.539062 11.539062 24.539062 C 6.292969 24.539062 2.042969 20.285156 2.042969 15.039062 C 2.042969 9.792969 6.292969 5.542969 11.539062 5.542969 C 16.785156 5.542969 21.039062 9.792969 21.039062 15.039062 Z M 21.039062 15.039062 "/>
</clipPath>
<clipPath id="clip7">
  <path d="M 2 6 L 21 6 L 21 24 L 2 24 Z M 2 6 "/>
</clipPath>
<clipPath id="clip8">
  <path d="M 20.277344 15.039062 C 20.277344 19.867188 16.367188 23.777344 11.539062 23.777344 C 6.714844 23.777344 2.800781 19.867188 2.800781 15.039062 C 2.800781 10.214844 6.714844 6.300781 11.539062 6.300781 C 16.367188 6.300781 20.277344 10.214844 20.277344 15.039062 Z M 20.277344 15.039062 "/>
</clipPath>
<clipPath id="clip9">
  <path d="M 5 12 L 18 12 L 18 19 L 5 19 Z M 5 12 "/>
</clipPath>
<clipPath id="clip10">
  <path d="M 14.199219 13.90625 L 16.667969 12.101562 C 16.886719 11.925781 17.050781 11.964844 17.050781 12.289062 L 17.050781 17.792969 C 17.050781 18.160156 16.84375 18.117188 16.667969 17.984375 L 14.199219 16.179688 Z M 5.839844 12.304688 L 5.839844 16.40625 C 5.847656 17.335938 6.601562 18.082031 7.53125 18.078125 L 13.511719 18.078125 C 13.683594 18.078125 13.820312 17.945312 13.820312 17.773438 L 13.820312 13.671875 C 13.816406 12.746094 13.058594 11.996094 12.132812 12 L 6.148438 12 C 5.980469 12 5.84375 12.136719 5.839844 12.304688 Z M 5.839844 12.304688 "/>
</clipPath>
</defs>
<g id="surface1">
<g clip-path="url(#clip1)" clip-rule="nonzero">
<g clip-path="url(#clip2)" clip-rule="evenodd">
<path style=" stroke:none;fill-rule:nonzero;fill:rgb(29.019608%,54.901961%,100%);fill-opacity:1;" d="M 23.414062 10.765625 L 58.175781 10.765625 L 58.175781 19.3125 L 23.414062 19.3125 Z M 23.414062 10.765625 "/>
</g>
</g>
<g clip-path="url(#clip3)" clip-rule="nonzero">
<g clip-path="url(#clip4)" clip-rule="nonzero">
<path style=" stroke:none;fill-rule:nonzero;fill:rgb(89.803922%,89.803922%,89.411765%);fill-opacity:1;" d="M 1.378906 4.875 L 21.703125 4.875 L 21.703125 25.203125 L 1.378906 25.203125 Z M 1.378906 4.875 "/>
</g>
</g>
<g clip-path="url(#clip5)" clip-rule="nonzero">
<g clip-path="url(#clip6)" clip-rule="nonzero">
<path style=" stroke:none;fill-rule:nonzero;fill:rgb(100%,100%,100%);fill-opacity:1;" d="M 1.566406 5.066406 L 21.511719 5.066406 L 21.511719 25.011719 L 1.566406 25.011719 Z M 1.566406 5.066406 "/>
</g>
</g>
<g clip-path="url(#clip7)" clip-rule="nonzero">
<g clip-path="url(#clip8)" clip-rule="nonzero">
<path style=" stroke:none;fill-rule:nonzero;fill:rgb(29.019608%,54.901961%,100%);fill-opacity:1;" d="M 2.328125 5.828125 L 20.753906 5.828125 L 20.753906 24.253906 L 2.328125 24.253906 Z M 2.328125 5.828125 "/>
</g>
</g>
<g clip-path="url(#clip9)" clip-rule="nonzero">
<g clip-path="url(#clip10)" clip-rule="evenodd">
<path style=" stroke:none;fill-rule:nonzero;fill:rgb(100%,100%,100%);fill-opacity:1;" d="M 5.367188 11.527344 L 17.523438 11.527344 L 17.523438 18.554688 L 5.367188 18.554688 Z M 5.367188 11.527344 "/>
</g>
</g>
</g>
</svg>
